<svg xmlns="http://www.w3.org/2000/svg" width="585.01" height="35" viewBox="0 0 585.01 35"><rect class="svg__rect" x="0" y="0" width="443.71000000000004" height="35" fill="#E46C17"/><rect class="svg__rect" x="441.71000000000004" y="0" width="143.29999999999995" height="35" fill="#389AD5"/><path class="svg__text" d="M13.78 19.42L13.78 19.42L15.27 19.42Q15.27 20.15 15.75 20.55Q16.23 20.95 17.12 20.95L17.12 20.95Q17.90 20.95 18.29 20.63Q18.68 20.32 18.68 19.80L18.68 19.80Q18.68 19.24 18.28 18.94Q17.89 18.63 16.85 18.32Q15.82 18.01 15.21 17.63L15.21 17.63Q14.05 16.90 14.05 15.72L14.05 15.72Q14.05 14.69 14.89 14.02Q15.73 13.35 17.07 13.35L17.07 13.35Q17.96 13.35 18.66 13.68Q19.36 14.01 19.75 14.61Q20.15 15.22 20.15 15.96L20.15 15.96L18.68 15.96Q18.68 15.29 18.26 14.91Q17.84 14.54 17.06 14.54L17.06 14.54Q16.33 14.54 15.93 14.85Q15.53 15.16 15.53 15.71L15.53 15.71Q15.53 16.18 15.96 16.50Q16.40 16.81 17.39 17.10Q18.39 17.40 18.99 17.78Q19.60 18.16 19.88 18.65Q20.16 19.13 20.16 19.79L20.16 19.79Q20.16 20.86 19.34 21.49Q18.52 22.12 17.12 22.12L17.12 22.12Q16.20 22.12 15.42 21.77Q14.64 21.43 14.21 20.83Q13.78 20.22 13.78 19.42ZM30.03 22L24.45 22L24.45 13.47L29.98 13.47L29.98 14.66L25.93 14.66L25.93 17.02L29.43 17.02L29.43 18.19L25.93 18.19L25.93 20.82L30.03 20.82L30.03 22ZM35.70 22L34.22 22L34.22 13.47L36.14 13.47L38.60 20.01L41.06 13.47L42.98 13.47L42.98 22L41.50 22L41.50 19.19L41.64 15.43L39.13 22L38.06 22L35.55 15.43L35.70 19.19L35.70 22ZM49.28 22L47.80 22L47.80 13.47L49.28 13.47L49.28 22ZM56.72 18.95L53.64 18.95L53.64 17.80L56.72 17.80L56.72 18.95ZM61.80 22L60.25 22L63.48 13.47L64.81 13.47L68.04 22L66.49 22L65.79 20.01L62.49 20.01L61.80 22ZM64.14 15.28L62.90 18.82L65.38 18.82L64.14 15.28ZM71.86 19.16L71.86 19.16L71.86 13.47L73.33 13.47L73.33 19.18Q73.33 20.03 73.77 20.48Q74.20 20.93 75.04 20.93L75.04 20.93Q76.75 20.93 76.75 19.13L76.75 19.13L76.75 13.47L78.23 13.47L78.23 19.17Q78.23 20.53 77.36 21.32Q76.49 22.12 75.04 22.12L75.04 22.12Q73.58 22.12 72.72 21.33Q71.86 20.55 71.86 19.16ZM84.48 14.66L81.85 14.66L81.85 13.47L88.61 13.47L88.61 14.66L85.95 14.66L85.95 22L84.48 22L84.48 14.66ZM92.10 18.00L92.10 18.00L92.10 17.52Q92.10 16.28 92.54 15.32Q92.98 14.37 93.79 13.86Q94.60 13.35 95.64 13.35Q96.68 13.35 97.49 13.85Q98.29 14.35 98.73 15.29Q99.17 16.23 99.18 17.48L99.18 17.48L99.18 17.96Q99.18 19.21 98.74 20.16Q98.31 21.10 97.51 21.61Q96.70 22.12 95.65 22.12L95.65 22.12Q94.61 22.12 93.80 21.61Q92.99 21.10 92.55 20.17Q92.11 19.23 92.10 18.00ZM93.58 17.46L93.58 17.96Q93.58 19.36 94.13 20.13Q94.68 20.90 95.65 20.90L95.65 20.90Q96.64 20.90 97.17 20.15Q97.70 19.40 97.70 17.96L97.70 17.96L97.70 17.51Q97.70 16.09 97.16 15.34Q96.62 14.58 95.64 14.58L95.64 14.58Q94.68 14.58 94.14 15.33Q93.59 16.09 93.58 17.46L93.58 17.46ZM105.12 22L103.64 22L103.64 13.47L105.56 13.47L108.03 20.01L110.48 13.47L112.40 13.47L112.40 22L110.92 22L110.92 19.19L111.07 15.43L108.55 22L107.49 22L104.97 15.43L105.12 19.19L105.12 22ZM117.92 22L116.38 22L119.60 13.47L120.93 13.47L124.16 22L122.61 22L121.91 20.01L118.61 20.01L117.92 22ZM120.26 15.28L119.02 18.82L121.50 18.82L120.26 15.28ZM129.79 14.66L127.16 14.66L127.16 13.47L133.92 13.47L133.92 14.66L131.26 14.66L131.26 22L129.79 22L129.79 14.66ZM143.26 22L137.68 22L137.68 13.47L143.22 13.47L143.22 14.66L139.16 14.66L139.16 17.02L142.67 17.02L142.67 18.19L139.16 18.19L139.16 20.82L143.26 20.82L143.26 22ZM149.91 22L147.45 22L147.45 13.47L149.97 13.47Q151.10 13.47 151.98 13.97Q152.86 14.48 153.34 15.40Q153.82 16.33 153.82 17.52L153.82 17.52L153.82 17.95Q153.82 19.16 153.33 20.08Q152.85 21.00 151.96 21.50Q151.06 22 149.91 22L149.91 22ZM148.94 14.66L148.94 20.82L149.90 20.82Q151.07 20.82 151.69 20.09Q152.32 19.36 152.33 17.99L152.33 17.99L152.33 17.52Q152.33 16.13 151.72 15.40Q151.12 14.66 149.97 14.66L149.97 14.66L148.94 14.66ZM169.84 22L164.26 22L164.26 13.47L169.80 13.47L169.80 14.66L165.74 14.66L165.74 17.02L169.24 17.02L169.24 18.19L165.74 18.19L165.74 20.82L169.84 20.82L169.84 22ZM175.13 22L173.40 22L176.05 17.70L173.46 13.47L175.17 13.47L176.97 16.55L178.76 13.47L180.47 13.47L177.89 17.70L180.53 22L178.80 22L176.97 18.87L175.13 22ZM190.19 22L184.61 22L184.61 13.47L190.15 13.47L190.15 14.66L186.10 14.66L186.10 17.02L189.60 17.02L189.60 18.19L186.10 18.19L186.10 20.82L190.19 20.82L190.19 22ZM201.14 22L199.60 22L202.82 13.47L204.15 13.47L207.38 22L205.84 22L205.14 20.01L201.83 20.01L201.14 22ZM203.49 15.28L202.25 18.82L204.72 18.82L203.49 15.28ZM212.82 22L211.34 22L211.34 13.47L212.82 13.47L216.64 19.54L216.64 13.47L218.11 13.47L218.11 22L216.62 22L212.82 15.95L212.82 22ZM225.30 22L222.85 22L222.85 13.47L225.37 13.47Q226.50 13.47 227.37 13.97Q228.25 14.48 228.73 15.40Q229.21 16.33 229.21 17.52L229.21 17.52L229.21 17.95Q229.21 19.16 228.73 20.08Q228.24 21.00 227.35 21.50Q226.46 22 225.30 22L225.30 22ZM224.33 14.66L224.33 20.82L225.30 20.82Q226.46 20.82 227.09 20.09Q227.71 19.36 227.72 17.99L227.72 17.99L227.72 17.52Q227.72 16.13 227.12 15.40Q226.51 14.66 225.37 14.66L225.37 14.66L224.33 14.66ZM241.13 22L239.65 22L239.65 13.47L241.57 13.47L244.03 20.01L246.49 13.47L248.40 13.47L248.40 22L246.93 22L246.93 19.19L247.07 15.43L244.56 22L243.49 22L240.98 15.43L241.13 19.19L241.13 22ZM252.71 19.42L252.71 19.42L254.19 19.42Q254.19 20.15 254.67 20.55Q255.15 20.95 256.05 20.95L256.05 20.95Q256.82 20.95 257.21 20.63Q257.60 20.32 257.60 19.80L257.60 19.80Q257.60 19.24 257.21 18.94Q256.81 18.63 255.78 18.32Q254.75 18.01 254.14 17.63L254.14 17.63Q252.97 16.90 252.97 15.72L252.97 15.72Q252.97 14.69 253.82 14.02Q254.66 13.35 256.00 13.35L256.00 13.35Q256.89 13.35 257.59 13.68Q258.28 14.01 258.68 14.61Q259.08 15.22 259.08 15.96L259.08 15.96L257.60 15.96Q257.60 15.29 257.18 14.91Q256.77 14.54 255.99 14.54L255.99 14.54Q255.26 14.54 254.86 14.85Q254.46 15.16 254.46 15.71L254.46 15.71Q254.46 16.18 254.89 16.50Q255.32 16.81 256.32 17.10Q257.32 17.40 257.92 17.78Q258.52 18.16 258.81 18.65Q259.09 19.13 259.09 19.79L259.09 19.79Q259.09 20.86 258.27 21.49Q257.45 22.12 256.05 22.12L256.05 22.12Q255.13 22.12 254.35 21.77Q253.57 21.43 253.14 20.83Q252.71 20.22 252.71 19.42ZM264.94 22L263.46 22L263.46 13.47L264.94 13.47L264.94 22ZM277.21 22L275.73 22L275.73 13.47L281.15 13.47L281.15 14.66L277.21 14.66L277.21 17.20L280.64 17.20L280.64 18.38L277.21 18.38L277.21 22ZM286.87 22L285.39 22L285.39 13.47L286.87 13.47L286.87 22ZM297.04 22L291.68 22L291.68 13.47L293.16 13.47L293.16 20.82L297.04 20.82L297.04 22ZM306.74 22L301.16 22L301.16 13.47L306.70 13.47L306.70 14.66L302.64 14.66L302.64 17.02L306.15 17.02L306.15 18.19L302.64 18.19L302.64 20.82L306.74 20.82L306.74 22ZM318.48 22L317.00 22L317.00 13.47L318.48 13.47L318.48 22ZM324.77 22L323.29 22L323.29 13.47L324.77 13.47L328.58 19.54L328.58 13.47L330.06 13.47L330.06 22L328.57 22L324.77 15.95L324.77 22ZM334.36 19.42L334.36 19.42L335.84 19.42Q335.84 20.15 336.32 20.55Q336.81 20.95 337.70 20.95L337.70 20.95Q338.48 20.95 338.86 20.63Q339.25 20.32 339.25 19.80L339.25 19.80Q339.25 19.24 338.86 18.94Q338.46 18.63 337.43 18.32Q336.40 18.01 335.79 17.63L335.79 17.63Q334.63 16.90 334.63 15.72L334.63 15.72Q334.63 14.69 335.47 14.02Q336.31 13.35 337.65 13.35L337.65 13.35Q338.54 13.35 339.24 13.68Q339.93 14.01 340.33 14.61Q340.73 15.22 340.73 15.96L340.73 15.96L339.25 15.96Q339.25 15.29 338.84 14.91Q338.42 14.54 337.64 14.54L337.64 14.54Q336.91 14.54 336.51 14.85Q336.11 15.16 336.11 15.71L336.11 15.71Q336.11 16.18 336.54 16.50Q336.98 16.81 337.97 17.10Q338.97 17.40 339.57 17.78Q340.17 18.16 340.46 18.65Q340.74 19.13 340.74 19.79L340.74 19.79Q340.74 20.86 339.92 21.49Q339.10 22.12 337.70 22.12L337.70 22.12Q336.78 22.12 336.00 21.77Q335.22 21.43 334.79 20.83Q334.36 20.22 334.36 19.42ZM346.71 14.66L344.07 14.66L344.07 13.47L350.84 13.47L350.84 14.66L348.18 14.66L348.18 22L346.71 22L346.71 14.66ZM355.37 22L353.83 22L357.06 13.47L358.39 13.47L361.61 22L360.07 22L359.37 20.01L356.06 20.01L355.37 22ZM357.72 15.28L356.48 18.82L358.95 18.82L357.72 15.28ZM370.92 22L365.57 22L365.57 13.47L367.05 13.47L367.05 20.82L370.92 20.82L370.92 22ZM380.40 22L375.05 22L375.05 13.47L376.53 13.47L376.53 20.82L380.40 20.82L380.40 22ZM385.31 22L383.77 22L386.99 13.47L388.32 13.47L391.55 22L390.00 22L389.31 20.01L386.00 20.01L385.31 22ZM387.65 15.28L386.42 18.82L388.89 18.82L387.65 15.28ZM397.19 14.66L394.55 14.66L394.55 13.47L401.32 13.47L401.32 14.66L398.66 14.66L398.66 22L397.19 22L397.19 14.66ZM406.64 22L405.16 22L405.16 13.47L406.64 13.47L406.64 22ZM411.18 18.00L411.18 18.00L411.18 17.52Q411.18 16.28 411.62 15.32Q412.06 14.37 412.87 13.86Q413.67 13.35 414.72 13.35Q415.76 13.35 416.57 13.85Q417.37 14.35 417.81 15.29Q418.25 16.23 418.26 17.48L418.26 17.48L418.26 17.96Q418.26 19.21 417.82 20.16Q417.39 21.10 416.58 21.61Q415.78 22.12 414.73 22.12L414.73 22.12Q413.69 22.12 412.88 21.61Q412.07 21.10 411.63 20.17Q411.18 19.23 411.18 18.00ZM412.66 17.46L412.66 17.96Q412.66 19.36 413.21 20.13Q413.76 20.90 414.73 20.90L414.73 20.90Q415.71 20.90 416.24 20.15Q416.77 19.40 416.77 17.96L416.77 17.96L416.77 17.51Q416.77 16.09 416.24 15.34Q415.70 14.58 414.72 14.58L414.72 14.58Q413.76 14.58 413.21 15.33Q412.67 16.09 412.66 17.46L412.66 17.46ZM424.20 22L422.72 22L422.72 13.47L424.20 13.47L428.02 19.54L428.02 13.47L429.49 13.47L429.49 22L428.01 22L424.20 15.95L424.20 22Z" fill="#FFFFFF"/><path class="svg__text" d="M457.98 22L455.25 13.60L457.70 13.60L459.39 18.96L461.17 13.60L463.35 13.60L465.04 19.01L466.81 13.60L469.08 13.60L466.35 22L463.81 22L462.20 16.89L460.52 22L457.98 22ZM475.97 22L473.59 22L473.59 13.60L475.97 13.60L475.97 22ZM483.47 22L481.14 22L481.14 13.60L483.10 13.60L486.81 18.07L486.81 13.60L489.13 13.60L489.13 22L487.18 22L483.47 17.52L483.47 22ZM498.27 22L494.29 22L494.29 13.60L498.27 13.60Q499.65 13.60 500.72 14.12Q501.78 14.63 502.37 15.58Q502.96 16.53 502.96 17.80L502.96 17.80Q502.96 19.07 502.37 20.02Q501.78 20.97 500.72 21.48Q499.65 22 498.27 22L498.27 22ZM496.67 15.50L496.67 20.10L498.17 20.10Q499.25 20.10 499.90 19.49Q500.56 18.88 500.56 17.80L500.56 17.80Q500.56 16.72 499.90 16.11Q499.25 15.50 498.17 15.50L498.17 15.50L496.67 15.50ZM507.26 17.80L507.26 17.80Q507.26 16.55 507.86 15.55Q508.47 14.56 509.53 14.00Q510.60 13.43 511.93 13.43L511.93 13.43Q513.26 13.43 514.32 14.00Q515.38 14.56 515.99 15.55Q516.60 16.55 516.60 17.80L516.60 17.80Q516.60 19.05 515.99 20.04Q515.38 21.04 514.32 21.60Q513.26 22.17 511.93 22.17L511.93 22.17Q510.60 22.17 509.53 21.60Q508.47 21.04 507.86 20.04Q507.26 19.05 507.26 17.80ZM509.66 17.80L509.66 17.80Q509.66 18.51 509.96 19.05Q510.26 19.60 510.78 19.90Q511.29 20.20 511.93 20.20L511.93 20.20Q512.56 20.20 513.08 19.90Q513.60 19.60 513.89 19.05Q514.19 18.51 514.19 17.80L514.19 17.80Q514.19 17.09 513.89 16.54Q513.60 16 513.08 15.70Q512.56 15.40 511.93 15.40L511.93 15.40Q511.29 15.40 510.77 15.70Q510.26 16 509.96 16.54Q509.66 17.09 509.66 17.80ZM523.40 22L520.68 13.60L523.13 13.60L524.82 18.96L526.59 13.60L528.78 13.60L530.47 19.01L532.23 13.60L534.50 13.60L531.78 22L529.23 22L527.63 16.89L525.95 22L523.40 22ZM538.43 21.24L538.43 21.24L539.21 19.49Q539.77 19.86 540.51 20.09Q541.26 20.32 541.98 20.32L541.98 20.32Q543.34 20.32 543.35 19.64L543.35 19.64Q543.35 19.28 542.96 19.11Q542.57 18.93 541.70 18.74L541.70 18.74Q540.75 18.53 540.12 18.30Q539.48 18.06 539.03 17.55Q538.57 17.03 538.57 16.16L538.57 16.16Q538.57 15.39 538.99 14.77Q539.41 14.15 540.25 13.79Q541.08 13.43 542.29 13.43L542.29 13.43Q543.11 13.43 543.92 13.62Q544.73 13.80 545.34 14.17L545.34 14.17L544.61 15.93Q543.41 15.28 542.28 15.28L542.28 15.28Q541.57 15.28 541.25 15.49Q540.92 15.70 540.92 16.04L540.92 16.04Q540.92 16.37 541.31 16.54Q541.69 16.71 542.54 16.89L542.54 16.89Q543.50 17.10 544.13 17.33Q544.76 17.56 545.22 18.07Q545.69 18.58 545.69 19.46L545.69 19.46Q545.69 20.21 545.27 20.83Q544.85 21.44 544.01 21.80Q543.17 22.17 541.97 22.17L541.97 22.17Q540.95 22.17 539.99 21.92Q539.02 21.67 538.43 21.24ZM558.03 15.44L556.47 15.44L556.47 13.60L560.41 13.60L560.41 22L558.03 22L558.03 15.44ZM565.15 17.80L565.15 17.80Q565.15 16.45 565.62 15.46Q566.10 14.46 566.94 13.95Q567.78 13.43 568.85 13.43L568.85 13.43Q569.92 13.43 570.76 13.95Q571.60 14.46 572.08 15.46Q572.55 16.45 572.55 17.80L572.55 17.80Q572.55 19.15 572.08 20.15Q571.60 21.14 570.77 21.65Q569.93 22.17 568.85 22.17L568.85 22.17Q567.78 22.17 566.94 21.65Q566.10 21.14 565.62 20.15Q565.15 19.16 565.15 17.80ZM567.54 17.80L567.54 17.80Q567.54 19.06 567.89 19.64Q568.25 20.22 568.85 20.22L568.85 20.22Q569.46 20.22 569.81 19.64Q570.17 19.06 570.17 17.80L570.17 17.80Q570.17 16.54 569.81 15.96Q569.46 15.38 568.85 15.38L568.85 15.38Q568.25 15.38 567.89 15.96Q567.54 16.54 567.54 17.80Z" fill="#FFFFFF" x="454.71000000000004"/></svg>